<svg width="137" height="135" viewBox="0 0 137 135" fill="none" xmlns="http://www.w3.org/2000/svg">
<path d="M56.8198 46.6676C55.8937 50.9743 63.8121 48.9063 62.7586 45.1166C62.0956 42.9863 57.5552 44.985 56.8198 46.6676Z" fill="#E08573" fill-opacity="0.71"/>
<path d="M50.2005 61.8104C55.3675 63.8484 57.7377 64.9909 61.1882 61.1088C51.6352 60.3518 48.6745 53.2662 51.3078 47.9716C53.0512 45.0774 51.7252 40.8168 58.79 39.2428C54.2403 34.3336 49.2369 38.4857 46.4494 44.4981C46.1407 45.9337 39.0853 54.4156 50.2005 61.8104Z" fill="#E08573" fill-opacity="0.71"/>
<path d="M67.7711 47.8724C68.1523 42.624 64.3474 42.9402 63.3395 44.1519C65.2922 52.4491 53.1329 48.1724 56.0116 52.1629C60.5976 55.1657 66.9631 53.3677 67.7711 47.8724Z" fill="#E08573" fill-opacity="0.71"/>
<path d="M53.2054 44.3596C52.0432 46.2891 53.7959 50.3027 56.0842 48.3501C52.7787 44.6065 65.7822 41.4815 67.2988 43.1179C67.998 43.3418 68.2705 43.8126 68.5429 44.2834C70.3682 44.4842 70.8674 40.4244 67.6437 39.7759C61.7774 37.514 53.9772 40.7706 53.2054 44.3596Z" fill="#E08573" fill-opacity="0.71"/>
<path d="M69.3602 45.6959C68.1348 58.3461 54.6951 54.8102 54.7675 50.9974C54.1046 48.8671 52.9785 48.8902 52.588 47.2307C50.3816 52.2783 51.5894 55.3503 54.5045 57.4344C59.4809 62.0966 66.7363 57.8983 69.7601 54.2632C72.6295 51.3459 73.5918 45.1328 69.3602 45.6959Z" fill="#E08573" fill-opacity="0.71"/>
<path d="M68.3897 74.5391C67.3362 70.7493 58.065 77.371 50.7546 69.6599C49.1387 80.6507 68.281 80.2583 68.3897 74.5391Z" fill="#E08573" fill-opacity="0.71"/>
<path d="M60.2246 37.7841C63.4845 36.5262 71.2123 37.0824 70.4043 42.5778C77.0517 48.1586 71.6309 59.4655 62.196 59.8971C61.2699 64.2038 79.4768 61.2103 78.8769 48.3593C78.9763 35.7322 63.0484 29.8653 59.5253 37.5602C59.371 38.278 59.7978 38.031 60.2246 37.7841Z" fill="#E08573" fill-opacity="0.71"/>
<path d="M48.9657 67.5527C57.0116 73.5812 62.4873 74.1836 70.7506 68.7737C73.0389 66.8211 82.5825 60.6703 78.7683 54.0786C78.7321 55.985 73.3838 63.4791 62.7048 62.7451C56.8478 67.3912 49.7374 63.9638 46.8587 59.9732C43.4081 63.8553 45.7783 64.9977 48.9657 67.5527Z" fill="#E08573" fill-opacity="0.71"/>
<path d="M58.5538 36.8654C66.3447 26.701 84.1073 39.6766 79.5038 52.396C81.0204 54.0324 91.4901 43.5748 81.8096 34.7213C69.096 22.595 56.3743 33.0988 58.5538 36.8654Z" fill="#E08573" fill-opacity="0.71"/>
<path d="M68.308 71.444C66.6009 72.4319 70.2151 74.7399 75.8814 72.7181C86.633 69.6392 91.5451 55.4842 86.2143 47.2562C85.1702 50.3743 83.5811 52.5507 81.0204 54.0325C82.192 59.0108 79.4407 63.1168 76.5713 66.0341C72.4215 69.6923 70.5963 69.4915 68.308 71.444Z" fill="#E08573" fill-opacity="0.71"/>
<path d="M74.7953 113.273C75.0677 113.743 75.0677 113.743 74.9134 114.461C77.1654 114.415 81.0427 110.286 81.7782 108.604C81.8963 109.792 82.5955 110.016 82.4412 110.734C84.5751 109.499 86.7816 104.451 86.9359 103.734C87.6351 103.958 87.6351 103.958 87.9076 104.428C88.4887 103.464 88.643 102.746 88.8336 100.122C88.9061 96.3088 87.1896 90.3887 86.4904 90.1649C85.7911 89.941 85.6368 90.6588 85.4825 91.3766C86.4179 93.9777 87.199 97.2966 86.854 100.639C86.4635 98.9791 86.4179 93.9777 84.6289 91.8705C83.7753 92.3644 83.4666 93.8 82.0319 95.2586C82.6587 99.2953 84.0209 101.65 82.668 106.203C82.7405 102.39 83.2035 100.237 81.4508 96.2234C79.3169 97.4582 76.1388 101.811 76.6474 104.659C76.6474 104.659 76.6474 104.659 76.2206 104.906C75.9119 106.342 75.1764 108.024 75.1402 109.931C75.6395 105.871 76.1025 103.717 75.5576 102.776C74.8584 102.552 72.7245 103.787 69.5826 106.233C69.5464 108.14 68.8109 109.822 68.0754 111.505C68.3841 110.069 68.8471 107.916 68.3022 106.974C66.8675 108.433 61.5099 109.019 60.502 110.231C61.2374 108.548 67.2943 108.186 67.7573 106.032C66.2045 106.302 64.1069 105.631 61.8548 105.677C64.1069 105.631 66.3589 105.585 68.1841 105.785C69.3102 105.762 70.3181 104.551 71.5984 103.81C68.9559 102.196 66.8582 101.525 65.3054 101.795C70.1181 100.267 70.0094 105.986 75.5939 100.869C76.4474 100.375 77.0286 99.4107 77.1829 98.693C75.3939 96.5857 71.471 95.7133 68.3654 96.2534C70.2269 94.5478 76.3656 97.2805 78.4633 97.9521C80.3248 96.2465 82.1863 94.5409 82.0682 93.3522C79.2712 92.4567 75.4664 92.7729 72.7876 93.066C75.8932 92.526 78.9988 91.9859 82.6493 92.3875C82.958 90.9519 84.2383 90.211 84.8195 89.2463C81.9045 87.1622 77.246 87.9723 74.5672 88.2654C75.1121 89.207 75.1121 89.207 75.657 90.1487C72.8601 89.2532 68.7465 91.005 66.6126 92.2398C66.885 92.7106 67.5843 92.9345 67.8567 93.4053C65.8771 93.9223 64.8692 95.134 63.4345 96.5927C63.8613 96.3457 64.1337 96.8165 64.4062 97.2874C62.8534 97.5574 62.1179 99.2399 60.5288 101.416C61.5005 102.111 61.5005 102.111 62.4722 102.806C60.9194 103.076 58.6311 105.028 58.3224 106.464C59.0217 106.688 58.8673 107.406 59.5665 107.63C58.2862 108.37 58.1318 109.088 57.9412 111.712C60.0389 112.384 61.8642 112.585 62.7178 112.091C62.7178 112.091 62.1366 113.056 62.4091 113.526C66.1777 115.117 67.2218 111.999 67.3037 115.094C70.2549 115.271 70.9542 115.495 74.7953 113.273Z" fill="#E08573" fill-opacity="0.71"/>
<path d="M80.5036 73.8144C91.0108 90.9882 114.63 99.3178 131.094 99.2186C116.501 104.52 88.1776 91.9992 78.2153 75.7669L80.5036 73.8144Z" fill="#E08573" fill-opacity="0.6"/>
<path d="M115.201 61.9074C115.628 61.6604 116.327 61.8843 116.481 61.1665C117.843 63.5207 118.28 70.1816 117.39 72.5819C118.398 71.3702 118.943 72.3119 119.524 71.3471C120.459 73.9482 118.371 80.1845 117.79 81.1492C118.489 81.3731 118.335 82.0909 119.188 81.597C118.607 82.5617 118.453 83.2795 116.864 85.456C114.267 88.8441 108.019 91.8307 107.047 91.136C106.775 90.6651 106.929 89.9473 107.084 89.2295C110.344 87.9717 112.632 86.0191 115.501 83.1018C113.794 84.0896 110.344 87.9717 107.392 87.794C106.848 86.8523 107.583 85.1698 107.619 83.2633C111.188 80.5699 114.021 79.559 116.5 74.9822C113.631 77.8995 112.041 80.076 107.928 81.8278C107.574 78.2619 107.41 72.0718 110.397 70.3431C111.56 68.4136 112.295 66.7311 113.031 65.0486C110.434 68.4367 109.117 71.084 108.145 70.3893C107.446 70.1654 106.938 67.3173 106.193 62.092C107.627 60.6333 107.936 59.1978 108.826 56.7974C108.517 58.233 106.928 60.4095 106.075 60.9034C105.566 58.0553 102.297 52.4053 101.906 50.7459C101.171 52.4284 105.838 58.5261 104.676 60.4556C103.432 59.2901 101.915 57.6537 99.854 55.0757C101.216 57.4298 103.005 59.537 104.794 61.6443C105.339 62.5859 105.303 64.4923 106.12 65.9048C102.896 65.2563 100.953 63.8669 99.5909 61.5127C102.007 67.6566 106.311 63.2806 106.556 72.5657C106.674 73.7544 106.793 74.943 106.638 75.6608C103.414 75.0122 99.5278 72.2334 97.8931 69.4084C97.975 72.5034 104.659 76.1778 106.602 77.5672C107.111 80.4153 107.192 83.5103 105.912 84.2512C103.696 82.3909 100.818 78.4004 98.7561 75.8223C100.936 79.589 102.843 82.8848 105.603 85.6867C105.295 87.1223 105.685 88.7818 105.377 90.2174C101.181 88.8741 98.1843 83.6949 96.5497 80.8699C97.9481 81.3177 97.6757 80.8469 98.8017 80.8238C95.8867 78.7396 94.0158 73.5374 93.2347 70.2185C93.934 70.4424 94.4788 71.384 95.3324 70.8901C93.9702 68.536 94.4332 66.3826 93.7702 64.2523C94.4695 64.4762 95.1687 64.7001 95.5955 64.4531C94.5057 62.5698 94.9688 60.4164 95.5861 57.5452C96.5578 58.2399 96.7121 57.5222 97.6838 58.2169C97.0208 56.0866 96.939 52.9915 97.6745 51.309C98.3737 51.5329 98.8005 51.2859 99.4997 51.5098C99.1092 49.8503 99.2635 49.1326 100.853 46.9561C103.495 48.5694 105.012 50.2058 104.857 50.9236C105.557 51.1474 105.438 49.9588 105.865 49.7119C109.752 52.4907 108.708 55.6088 110.996 53.6562C113.484 55.9873 114.184 56.2112 115.201 61.9074Z" fill="#E08573" fill-opacity="0.67"/>
<path d="M37.8027 52.3633V56.9775H30.5225V61.25C30.5225 63.3236 31.0465 64.6794 32.0947 65.3174C33.1429 65.9554 34.5329 66.2744 36.2646 66.2744H37.1533V70H12.6123V66.2744H14.5605C16.3151 66.2744 17.7051 65.9554 18.7305 65.3174C19.7786 64.6794 20.3027 63.3236 20.3027 61.25V56.9775H0.922852V52.7051L20.7812 20.0293H30.5225V52.3633H37.8027ZM5.81055 52.3633H20.3027V40.127C20.3027 38.0762 20.3369 35.8659 20.4053 33.4961C20.4736 31.1263 20.599 28.8477 20.7812 26.6602C20.5534 27.207 20.1888 27.9476 19.6875 28.8818C19.209 29.8161 18.6735 30.8073 18.0811 31.8555C17.5114 32.8809 16.9645 33.8379 16.4404 34.7266C15.9163 35.6152 15.5176 36.2874 15.2441 36.7432L5.81055 52.3633ZM131.523 52.3633V56.9775H124.243V61.25C124.243 63.3236 124.767 64.6794 125.815 65.3174C126.864 65.9554 128.254 66.2744 129.985 66.2744H130.874V70H106.333V66.2744H108.281C110.036 66.2744 111.426 65.9554 112.451 65.3174C113.499 64.6794 114.023 63.3236 114.023 61.25V56.9775H94.6436V52.7051L114.502 20.0293H124.243V52.3633H131.523ZM99.5312 52.3633H114.023V40.127C114.023 38.0762 114.058 35.8659 114.126 33.4961C114.194 31.1263 114.32 28.8477 114.502 26.6602C114.274 27.207 113.91 27.9476 113.408 28.8818C112.93 29.8161 112.394 30.8073 111.802 31.8555C111.232 32.8809 110.685 33.8379 110.161 34.7266C109.637 35.6152 109.238 36.2874 108.965 36.7432L99.5312 52.3633Z" fill="black"/>
</svg>
