<svg width="217" height="119" viewBox="0 0 217 119" fill="none" xmlns="http://www.w3.org/2000/svg">
<path d="M86.5371 31.4281C85.5799 35.728 93.513 33.7175 92.487 29.9202C91.8394 27.7852 87.2848 29.751 86.5371 31.4281Z" fill="#E08573" fill-opacity="0.71"/>
<path d="M79.8084 46.5227C84.9605 48.598 87.3223 49.7576 90.8009 45.9006C81.2536 45.0744 78.3444 37.9676 81.0158 32.6922C82.7801 29.8107 81.4851 25.5406 88.5611 24.0178C84.047 19.0758 79.0138 23.1916 76.1827 29.1836C75.8637 30.6169 68.747 39.0475 79.8084 46.5227Z" fill="#E08573" fill-opacity="0.71"/>
<path d="M97.4796 32.7122C97.8988 27.4667 94.0917 27.7553 93.0751 28.9597C94.9676 37.2709 82.8396 32.9062 85.6894 36.9175C90.2534 39.9533 96.6319 38.2015 97.4796 32.7122Z" fill="#E08573" fill-opacity="0.71"/>
<path d="M82.9397 29.094C81.7635 31.015 83.4871 35.0412 85.7895 33.1053C82.5111 29.3378 95.537 26.307 97.0416 27.9544C97.7392 28.1833 98.0083 28.6561 98.2773 29.1289C100.101 29.3429 100.63 25.2868 97.4108 24.615C91.561 22.3107 83.7374 25.5107 82.9397 29.094Z" fill="#E08573" fill-opacity="0.71"/>
<path d="M99.0844 30.5473C97.7675 43.1882 84.3537 39.5551 84.4538 35.7429C83.8062 33.6079 82.6801 33.6228 82.3016 31.9606C80.0586 36.9921 81.2442 40.0727 84.1441 42.1779C89.0867 46.876 96.3723 42.7304 99.4223 39.1172C102.313 36.2208 103.32 30.0148 99.0844 30.5473Z" fill="#E08573" fill-opacity="0.71"/>
<path d="M97.9051 59.3826C96.8791 55.5853 87.5601 62.1397 80.3058 54.3759C78.6103 65.3546 97.755 65.1009 97.9051 59.3826Z" fill="#E08573" fill-opacity="0.71"/>
<path d="M90.0063 22.5695C93.2753 21.3353 100.999 21.9474 100.151 27.4368C106.758 33.0656 101.255 44.3329 91.8176 44.6962C90.8603 48.9961 109.088 46.1345 108.582 33.2796C108.772 20.6535 92.8874 14.6714 89.3087 22.3406C89.1492 23.0572 89.5777 22.8133 90.0063 22.5695Z" fill="#E08573" fill-opacity="0.71"/>
<path d="M78.5321 52.2558C86.5341 58.3424 92.0053 58.9845 100.308 53.6345C102.61 51.6985 112.198 45.617 108.431 38.9979C108.381 40.904 102.979 48.3591 92.3056 47.5479C86.4152 52.1514 79.3298 48.6726 76.48 44.6613C73.0014 48.5183 75.3632 49.6779 78.5321 52.2558Z" fill="#E08573" fill-opacity="0.71"/>
<path d="M88.3421 21.6388C96.2064 11.531 113.875 24.6349 109.179 37.3206C110.684 38.968 121.229 28.5865 111.613 19.6631C98.9874 7.4451 86.1899 17.8564 88.3421 21.6388Z" fill="#E08573" fill-opacity="0.71"/>
<path d="M97.8457 56.2871C96.1314 57.2626 99.7289 59.5967 105.41 57.616C116.183 54.615 121.198 40.496 115.927 32.2295C114.86 35.34 113.255 37.5049 110.684 38.9681C111.819 43.9548 109.038 48.0407 106.148 50.9371C101.972 54.5652 100.148 54.3512 97.8457 56.2871Z" fill="#E08573" fill-opacity="0.71"/>
<path d="M104.409 95.7379C104.678 96.2107 104.678 96.2107 104.518 96.9273C106.77 96.8975 110.678 92.7966 111.425 91.1195C111.535 92.3089 112.232 92.5378 112.073 93.2545C114.216 92.0352 116.459 87.0037 116.618 86.287C117.316 86.516 117.316 86.516 117.585 86.9888C118.173 86.0283 118.332 85.3116 118.542 82.6888C118.642 78.8766 116.968 72.9443 116.271 72.7154C115.573 72.4865 115.414 73.2031 115.254 73.9198C116.171 76.5276 116.928 79.8521 116.559 83.1915C116.18 81.5293 116.171 76.5276 114.397 74.4075C113.54 74.8952 113.221 76.3285 111.776 77.7768C112.373 81.8179 113.718 84.1819 112.332 88.7256C112.433 84.9134 112.911 82.7635 111.187 78.7373C109.045 79.9566 105.835 84.2863 106.323 87.138C106.323 87.138 106.323 87.138 105.895 87.3819C105.575 88.8152 104.828 90.4924 104.778 92.3985C105.306 88.3424 105.785 86.1924 105.247 85.2468C104.549 85.0179 102.407 86.2372 99.2471 88.6609C99.1971 90.567 98.4494 92.2442 97.7018 93.9213C98.0209 92.488 98.4995 90.3381 97.9614 89.3925C96.5162 90.8407 91.1545 91.3881 90.1378 92.5925C90.8854 90.9153 96.9448 90.5968 97.4234 88.4469C95.8687 88.7057 93.7759 88.0189 91.5236 88.0487C93.7759 88.0189 96.0282 87.989 97.8519 88.203C98.9781 88.1881 99.9948 86.9837 101.28 86.2521C98.6496 84.6198 96.5569 83.9329 95.0021 84.1917C99.8258 82.6987 99.6757 88.417 105.297 83.3407C106.154 82.853 106.742 81.8925 106.902 81.1759C105.128 79.0558 101.212 78.1549 98.1022 78.6725C99.976 76.9804 106.095 79.7575 108.188 80.4443C110.061 78.7522 111.935 77.0601 111.826 75.8707C109.035 74.9549 105.228 75.2436 102.547 75.5173C105.657 74.9997 108.766 74.4821 112.414 74.9101C112.733 73.4768 114.019 72.7453 114.607 71.7847C111.707 69.6796 107.043 70.4559 104.362 70.7296C104.9 71.6752 104.9 71.6752 105.438 72.6208C102.647 71.7051 98.5214 73.427 96.3785 74.6463C96.6476 75.1191 97.3452 75.348 97.6142 75.8208C95.6309 76.3235 94.6142 77.5278 93.169 78.9761C93.5976 78.7322 93.8666 79.205 94.1356 79.6778C92.5809 79.9366 91.8333 81.6138 90.2285 83.7786C91.1951 84.4804 91.1951 84.4804 92.1617 85.1821C90.607 85.4409 88.3046 87.3768 87.9856 88.8101C88.6832 89.0391 88.5236 89.7557 89.2212 89.9847C87.9355 90.7162 87.776 91.4329 87.5664 94.0556C89.6592 94.7425 91.4829 94.9565 92.34 94.4687C92.34 94.4687 91.7519 95.4293 92.021 95.902C95.778 97.5195 96.8447 94.409 96.9041 97.5046C99.854 97.7037 100.552 97.9326 104.409 95.7379Z" fill="#E08573" fill-opacity="0.71"/>
<path d="M110.024 58.7457C120.406 75.9952 143.965 84.4956 160.429 84.5156C145.798 89.7113 117.566 76.9856 107.721 60.6817L110.024 58.7457Z" fill="#E08573" fill-opacity="0.6"/>
<path d="M144.806 47.0903C145.235 46.8464 145.933 47.0753 146.092 46.3587C147.437 48.7226 147.825 55.3865 146.918 57.7803C147.935 56.576 148.473 57.5216 149.061 56.561C149.977 59.1689 147.844 65.3898 147.256 66.3503C147.953 66.5793 147.794 67.2959 148.651 66.8082C148.063 67.7687 147.903 68.4854 146.299 70.6503C143.677 74.0195 137.408 76.9608 136.442 76.259C136.173 75.7862 136.332 75.0696 136.492 74.3529C139.761 73.1187 142.063 71.1828 144.953 68.2863C143.239 69.2617 139.761 73.1187 136.811 72.9196C136.273 71.974 137.02 70.2969 137.07 68.3908C140.658 65.7232 143.499 64.7329 146.011 60.1742C143.12 63.0706 141.516 65.2355 137.389 66.9575C137.061 63.3891 136.942 57.198 139.942 55.491C141.118 53.57 141.866 51.8928 142.613 50.2156C139.992 53.5849 138.656 56.2226 137.69 55.5209C136.992 55.2919 136.504 52.4402 135.797 47.2097C137.242 45.7614 137.561 44.3281 138.469 41.9343C138.15 43.3676 136.545 45.5325 135.688 46.0202C135.2 43.1685 131.971 37.495 131.593 35.8328C130.845 37.5099 135.469 43.6413 134.292 45.5623C133.057 44.3878 131.552 42.7405 129.509 40.1476C130.855 42.5116 132.628 44.6317 134.402 46.7518C134.94 47.6974 134.89 49.6035 135.697 51.0219C132.478 50.35 130.545 48.9465 129.2 46.5826C131.571 52.7438 135.907 48.3991 136.085 57.6857C136.194 58.8752 136.304 60.0646 136.144 60.7813C132.925 60.1094 129.059 57.3025 127.445 54.4657C127.504 57.5613 134.161 61.2839 136.094 62.6874C136.582 65.5391 136.642 68.6346 135.356 69.3662C133.154 67.49 130.304 63.4787 128.261 60.8858C130.413 64.6681 132.297 67.9777 135.037 70.7995C134.718 72.2328 135.096 73.8951 134.777 75.3284C130.592 73.9548 127.633 68.754 126.018 65.9173C127.414 66.3751 127.145 65.9023 128.271 65.8874C125.371 63.7822 123.538 58.5666 122.781 55.2421C123.478 55.471 124.016 56.4166 124.873 55.9289C123.528 53.5649 124.007 51.415 123.359 49.2799C124.057 49.5089 124.755 49.7378 125.183 49.4939C124.107 47.6028 124.586 45.4528 125.224 42.5862C126.19 43.2879 126.35 42.5713 127.317 43.273C126.669 41.138 126.61 38.0424 127.357 36.3653C128.055 36.5942 128.483 36.3503 129.181 36.5793C128.802 34.917 128.962 34.2004 130.567 32.0355C133.198 33.6679 134.702 35.3152 134.543 36.0318C135.24 36.2608 135.131 35.0713 135.559 34.8275C139.426 37.6344 138.359 40.7449 140.661 38.8089C143.133 41.1579 143.83 41.3869 144.806 47.0903Z" fill="#E08573" fill-opacity="0.67"/>
<path d="M33.3276 27.7275C33.3276 28.945 33.1576 30.0103 32.8174 30.9233C32.4951 31.8185 32.0296 32.5884 31.4209 33.2329C30.8122 33.8953 30.0781 34.4593 29.2188 34.9248C28.3773 35.3903 27.4373 35.7842 26.3989 36.1064V36.375C29.0129 37.0374 31.0807 38.1654 32.6025 39.7588C33.3545 40.5824 33.9364 41.5312 34.3481 42.6055C34.7778 43.6797 34.9927 44.8882 34.9927 46.231C34.9927 53.4103 29.7469 57 19.2554 57H1.53076V54.0728H3.78662C4.73551 54.0728 5.45166 53.8311 5.93506 53.3477C6.41846 52.8643 6.66016 51.9154 6.66016 50.501V24.1558C6.66016 22.8488 6.40951 21.9357 5.9082 21.4165C5.4069 20.8973 4.69971 20.6377 3.78662 20.6377H1.53076V17.7373H17.5903C22.8182 17.7373 26.748 18.543 29.3799 20.1543C32.0117 21.7656 33.3276 24.29 33.3276 27.7275ZM17.3218 21.0942H15.3345V34.7905H17.4292C19.9357 34.7905 21.6903 34.2355 22.6929 33.1255C23.2121 32.5526 23.5701 31.8275 23.7671 30.9502C23.9819 30.055 24.0894 28.9808 24.0894 27.7275C24.0894 25.2389 23.5791 23.5112 22.5586 22.5444C21.5381 21.5776 19.7925 21.0942 17.3218 21.0942ZM19.0942 38.1475H15.3345V53.6431H18.9868C21.4396 53.6431 23.1763 53.0701 24.1968 51.9243C25.2173 50.7964 25.7275 48.8359 25.7275 46.043C25.7275 44.7002 25.6201 43.5365 25.4053 42.5518C25.1904 41.5492 24.8234 40.7256 24.3042 40.0811C23.785 39.4365 23.1047 38.9531 22.2632 38.6309C21.4217 38.3086 20.3654 38.1475 19.0942 38.1475ZM53.7915 57.5371C49.1545 57.5371 45.6095 56.2122 43.1567 53.5625C40.7397 50.9486 39.5312 47.2336 39.5312 42.4175C39.5312 37.2791 40.7218 33.3851 43.103 30.7354C45.4484 28.1214 48.8053 26.8145 53.1738 26.8145C57.2201 26.8145 60.3621 27.9334 62.6001 30.1714C63.7101 31.2814 64.5605 32.66 65.1514 34.3071C65.7422 35.9543 66.0376 37.87 66.0376 40.0542V42.874H48.0176C48.0713 44.7181 48.2772 46.3026 48.6353 47.6274C48.9933 48.9523 49.4767 50.0444 50.0854 50.9038C51.3029 52.5868 53.0664 53.4282 55.376 53.4282C57.1842 53.4282 58.7598 53.0254 60.1025 52.2197C61.4453 51.3962 62.4569 50.313 63.1372 48.9702C64.1219 49.5073 64.6143 50.4025 64.6143 51.6558C64.6143 52.4435 64.3994 53.1955 63.9697 53.9116C63.54 54.6099 62.8776 55.2275 61.9824 55.7646C61.0872 56.3018 59.9593 56.7314 58.5986 57.0537C57.2559 57.376 55.6535 57.5371 53.7915 57.5371ZM53.2812 30.3862C51.7415 30.3862 50.5151 31.1471 49.6021 32.6689C48.7069 34.1908 48.2145 36.4198 48.125 39.356H57.6318C57.6318 37.9595 57.5513 36.7062 57.3901 35.5962C57.2469 34.4862 56.9963 33.5462 56.6382 32.7764C55.9041 31.1829 54.7852 30.3862 53.2812 30.3862ZM160.837 54.0728V57H149.88L148.672 53.106H148.403C147.347 54.9321 146.094 56.1317 144.644 56.7046C143.211 57.2596 141.564 57.5371 139.702 57.5371C136.838 57.5371 134.635 56.6509 133.096 54.8784C131.574 53.106 130.813 50.3667 130.813 46.6606V34.334C130.813 32.7943 130.527 31.7648 129.954 31.2456C129.399 30.7085 128.432 30.4399 127.053 30.4399H126.946V27.5127H139.165V45.1299C139.165 47.3499 139.443 49.194 139.998 50.6621C140.57 52.1302 141.689 52.8643 143.354 52.8643C145.073 52.8643 146.353 52.1123 147.195 50.6084C147.607 49.8743 147.902 48.9971 148.081 47.9766C148.26 46.9561 148.35 45.8013 148.35 44.5122V33.958C148.35 32.4362 147.992 31.4694 147.275 31.0576C146.559 30.6458 145.592 30.4399 144.375 30.4399H144.214V27.5127H156.702V50.6084C156.702 52.0944 157.015 53.0433 157.642 53.4551C158.268 53.8669 159.181 54.0728 160.381 54.0728H160.837ZM179.475 53.106C180.191 53.106 180.872 53.0612 181.516 52.9717C182.179 52.8643 182.796 52.7389 183.369 52.5957V56.1675C182.653 56.5076 181.579 56.821 180.146 57.1074C178.732 57.3939 177.21 57.5371 175.581 57.5371C174.346 57.5371 173.227 57.3849 172.224 57.0806C171.222 56.7941 170.371 56.3018 169.673 55.6035C168.975 54.9232 168.438 54.0369 168.062 52.9448C167.686 51.8348 167.498 50.4741 167.498 48.8628V31.2725H163.362V28.4526C164.543 28.4526 165.6 28.2199 166.531 27.7544C167.462 27.2889 168.205 26.7518 168.76 26.1431C169.87 24.9793 170.711 23.1621 171.284 20.6914H175.85V27.5127H182.886V31.2725H175.85V48.2988C175.85 49.9639 176.127 51.1813 176.682 51.9512C177.255 52.721 178.186 53.106 179.475 53.106ZM203.967 30.4399V27.5127H216.348V30.4399C215.166 30.4399 214.271 30.7533 213.662 31.3799C213.053 31.9886 212.48 33.0091 211.943 34.4414C211.299 36.2676 210.627 38.1296 209.929 40.0273C209.231 41.9072 208.533 43.805 207.834 45.7207C207.458 46.7412 207.011 47.9408 206.492 49.3193C205.972 50.6979 205.453 52.0765 204.934 53.4551C204.433 54.8158 204.003 55.9974 203.645 57C203.323 57.8773 203.009 58.7008 202.705 59.4707C202.401 60.2585 202.105 60.9925 201.819 61.6729C201.246 63.0156 200.637 64.1794 199.993 65.1641C199.366 66.1488 198.668 66.9634 197.898 67.6079C197.128 68.2345 196.233 68.7537 195.212 69.1655C194.192 69.5415 193.001 69.8101 191.641 69.9712C190.298 70.1323 188.722 70.2129 186.914 70.2129H185.974V67.0171C187.89 67.0171 189.519 66.7843 190.862 66.3188C192.205 65.8534 193.341 65.1909 194.272 64.3315C195.203 63.4722 195.964 62.4427 196.555 61.2432C197.164 60.0436 197.692 58.7188 198.14 57.2686L188.23 33.0718C187.836 32.0871 187.335 31.4604 186.726 31.1919C186.117 30.9054 185.374 30.7622 184.497 30.7622V27.5127H200.181V30.4399C199.106 30.4399 198.256 30.5832 197.629 30.8696C197.021 31.1382 196.716 31.6753 196.716 32.481C196.716 32.7853 196.779 33.1523 196.904 33.582C197.03 33.9938 197.146 34.334 197.253 34.6025C197.611 35.4619 198.032 36.5361 198.516 37.8252C199.017 39.1143 199.491 40.3944 199.939 41.6655C200.404 42.9188 200.771 43.9214 201.04 44.6733C201.488 45.8192 201.837 46.9023 202.087 47.9229C202.356 48.9434 202.526 49.8027 202.598 50.501C202.669 49.8206 202.839 49.0508 203.108 48.1914C203.376 47.3141 203.609 46.6159 203.806 46.0967L207.432 35.3276C207.575 35.0054 207.7 34.5578 207.808 33.9849C207.915 33.394 207.969 32.9465 207.969 32.6421C207.969 31.8006 207.62 31.2277 206.921 30.9233C206.223 30.6011 205.238 30.4399 203.967 30.4399Z" fill="black"/>
</svg>
